<!-- Shape from Wikimedia File:Japanese_Hiragana_mincho_RI_alt.svg (CC BY-SA 4.0); median tuned for stroke reveal -->
<svg data-strokesvg="り" viewBox="0 0 1024 1024" xmlns="http://www.w3.org/2000/svg">
  <defs>
    <clipPath id="riAltClip">
      <path d="M 356 211 Q 400 223 418 247 Q 426 258 418 276 Q 400 311 388 393 Q 379 461 388 508 Q 391 525 400 511 Q 459 346 511 293 Q 544 261 579 261 Q 611 261 632 282 Q 679 329 679 455 Q 679 631 599 710 Q 526 783 420 813 Q 400 813 415 801 Q 491 777 561 707 Q 638 631 638 449 Q 638 320 605 288 Q 594 276 579 276 Q 558 276 535 299 Q 491 343 435 502 Q 420 543 420 581 Q 420 616 397 616 Q 379 616 371 590 Q 353 537 353 455 Q 353 381 374 270 Q 379 238 350 220 Q 338 211 356 211 Z"/>
    </clipPath>
  </defs>
  <g data-strokesvg="shadows" style="fill:var(--shadow,#ccc)">
    <path d="M 356 211 Q 400 223 418 247 Q 426 258 418 276 Q 400 311 388 393 Q 379 461 388 508 Q 391 525 400 511 Q 459 346 511 293 Q 544 261 579 261 Q 611 261 632 282 Q 679 329 679 455 Q 679 631 599 710 Q 526 783 420 813 Q 400 813 415 801 Q 491 777 561 707 Q 638 631 638 449 Q 638 320 605 288 Q 594 276 579 276 Q 558 276 535 299 Q 491 343 435 502 Q 420 543 420 581 Q 420 616 397 616 Q 379 616 371 590 Q 353 537 353 455 Q 353 381 374 270 Q 379 238 350 220 Q 338 211 356 211 Z"/>
  </g>
  <g data-strokesvg="strokes" style="stroke:var(--stroke,#000);fill:none;stroke-width:176;stroke-linecap:round;stroke-linejoin:round">
    <path style="--i:0" d="M385 235Q388 253 390 270Q388 295 385 320Q383 350 380 380Q381 410 382 440Q384 465 386 490Q388 503 390 515Q392 522 393 528Q395 525 396 522Q403 501 410 480Q428 440 445 400Q468 368 490 335Q515 310 540 285Q565 278 590 270Q605 295 620 320Q633 360 645 400Q648 440 650 480Q645 520 640 560Q625 600 610 640Q590 675 570 710Q545 735 520 760Q495 775 470 790" clip-path="url(#riAltClip)"/>
  </g>
</svg>
